<svg xmlns="http://www.w3.org/2000/svg" xmlns:xlink="http://www.w3.org/1999/xlink" width="960" height="624.46"><rect width="960" height="624.46" rx="5" ry="5" class="a"/><svg y="0%" x="0%"><circle cx="20" cy="20" r="6" fill="#ff5f58"/><circle cx="40" cy="20" r="6" fill="#ffbd2e"/><circle cx="60" cy="20" r="6" fill="#18c132"/></svg><svg height="564.46" viewBox="0 0 92 56.446" width="920" x="15" xmlns="http://www.w3.org/2000/svg" xmlns:xlink="http://www.w3.org/1999/xlink" y="50"><style>@keyframes i{0%{transform:translateX(0)}.1%{transform:translateX(-184px)}18.1%{transform:translateX(-276px)}48.1%{transform:translateX(-368px)}72.1%{transform:translateX(-460px)}96%{transform:translateX(-552px)}to{transform:translateX(-644px)}}.a{fill:#282d35}.f{fill:#b9c0cb;white-space:pre}</style><g font-family="Monaco,Consolas,Menlo,'Bitstream Vera Sans Mono','Powerline Symbols',monospace" font-size="1.67"><defs><symbol id="1"><text y="1.67" class="f">$</text><text x="2.004" y="1.67" class="f">cat</text><text x="6.012" y="1.67" class="f">mcp-config.json</text></symbol><symbol id="2"><text y="1.67" class="f">{</text></symbol><symbol id="3"><text x="2.004" y="1.67" class="f">&quot;mcpServers&quot;:</text><text x="16.032" y="1.67" class="f">{</text></symbol><symbol id="4"><text x="4.008" y="1.67" class="f">&quot;filesystem&quot;:</text><text x="18.036" y="1.67" class="f">{</text><text x="20.04" y="1.67" class="f">&quot;command&quot;:</text><text x="31.062" y="1.67" class="f">&quot;npx&quot;,</text><text x="38.076" y="1.67" class="f">&quot;args&quot;:</text><text x="46.092" y="1.67" class="f">[&quot;-y&quot;,</text><text x="53.106" y="1.67" class="f">&quot;@modelcontextprotocol/server-filesyste</text></symbol><symbol id="5"><text y="1.67" class="f">m&quot;,</text><text x="4.008" y="1.67" class="f">&quot;/tmp&quot;]</text><text x="12.024" y="1.67" class="f">}</text></symbol><symbol id="6"><text x="2.004" y="1.67" class="f">}</text></symbol><symbol id="7"><text y="1.67" class="f">}</text></symbol><symbol id="8"><text y="1.67" class="f">$</text><text x="2.004" y="1.67" class="f">agentic-compliance-scan</text><text x="26.052" y="1.67" class="f">--discover</text><text x="37.074" y="1.67" class="f">mcp-config.json</text><text x="53.106" y="1.67" class="f">--name</text><text x="60.12" y="1.67" class="f">my-agent</text><text x="69.138" y="1.67" class="f">&gt;</text><text x="71.142" y="1.67" class="f">my-agent.json</text></symbol><symbol id="9"><text y="1.67" class="f">#</text><text x="2.004" y="1.67" class="f">filesystem:</text><text x="14.028" y="1.67" class="f">discovered</text><text x="25.05" y="1.67" class="f">14</text><text x="28.056" y="1.67" class="f">tool(s)</text></symbol><symbol id="10"><text y="1.67" class="f">#</text><text x="2.004" y="1.67" class="f">review</text><text x="9.018" y="1.67" class="f">filesystem:directory_tree</text><text x="35.07" y="1.67" class="f">(effects</text><text x="44.088" y="1.67" class="f">low</text><text x="48.096" y="1.67" class="f">confidence:</text><text x="60.12" y="1.67" class="f">no</text><text x="63.126" y="1.67" class="f">recognised</text><text x="74.148" y="1.67" class="f">read</text><text x="79.158" y="1.67" class="f">or</text><text x="82.164" y="1.67" class="f">write</text><text x="88.176" y="1.67" class="f">verb</text></symbol><symbol id="11"><text y="1.67" class="f">;</text><text x="2.004" y="1.67" class="f">defaulted</text><text x="12.024" y="1.67" class="f">to</text><text x="15.03" y="1.67" class="f">read-only,</text><text x="26.052" y="1.67" class="f">please</text><text x="33.066" y="1.67" class="f">review)</text></symbol><symbol id="12"><text y="1.67" class="f">#</text><text x="2.004" y="1.67" class="f">draft</text><text x="8.016" y="1.67" class="f">written</text><text x="16.032" y="1.67" class="f">to</text><text x="19.038" y="1.67" class="f">stdout.</text><text x="27.054" y="1.67" class="f">Review</text><text x="34.068" y="1.67" class="f">the</text><text x="38.076" y="1.67" class="f">effects,</text><text x="47.094" y="1.67" class="f">then</text><text x="52.104" y="1.67" class="f">set</text><text x="56.112" y="1.67" class="f">isHighRiskAiSystem,</text><text x="76.152" y="1.67" class="f">inScopeSystems,</text></symbol><symbol id="13"><text y="1.67" class="f">and</text><text x="4.008" y="1.67" class="f">controls</text><text x="13.026" y="1.67" class="f">before</text><text x="20.04" y="1.67" class="f">scanning.</text></symbol><symbol id="14"><text y="1.67" class="f">#</text><text x="2.004" y="1.67" class="f">tool</text><text x="7.014" y="1.67" class="f">catalog</text><text x="15.03" y="1.67" class="f">and</text><text x="19.038" y="1.67" class="f">effects</text><text x="27.054" y="1.67" class="f">pulled</text><text x="34.068" y="1.67" class="f">from</text><text x="39.078" y="1.67" class="f">the</text><text x="43.086" y="1.67" class="f">live</text><text x="48.096" y="1.67" class="f">server.</text><text x="56.112" y="1.67" class="f">no</text><text x="59.118" y="1.67" class="f">hand-listing.</text></symbol><symbol id="15"><text y="1.67" class="f">$</text><text x="2.004" y="1.67" class="f">agentic-compliance-scan</text><text x="26.052" y="1.67" class="f">--inventory</text><text x="38.076" y="1.67" class="f">my-agent.json</text><text x="52.104" y="1.67" class="f">--jurisdiction</text><text x="67.134" y="1.67" class="f">DE</text></symbol><symbol id="a"><path fill="transparent" d="M0 0h92v27H0z"/></symbol><symbol id="b"><path fill="#6f7683" d="M0 0h1.102v2.171H0z"/></symbol></defs><path class="a" d="M0 0h92v56.446H0z"/><g style="animation-duration:6.67744s;animation-iteration-count:infinite;animation-name:i;animation-timing-function:steps(1,end)"><svg width="736"><svg><use xlink:href="#a"/><use xlink:href="#b" x="-.004"/></svg><svg x="92"><use xlink:href="#a"/><use xlink:href="#b" x="-.004" y="2.146"/><use xlink:href="#1"/></svg><svg x="184"><use xlink:href="#a"/><use xlink:href="#b" x="-.004" y="15.172"/><use xlink:href="#1"/><use xlink:href="#2" y="2.171"/><use xlink:href="#3" y="4.342"/><use xlink:href="#4" y="6.513"/><use xlink:href="#5" y="8.684"/><use xlink:href="#6" y="10.855"/><use xlink:href="#7" y="13.026"/></svg><svg x="276"><use xlink:href="#a"/><use xlink:href="#b" x="-.004" y="19.514"/><use xlink:href="#1"/><use xlink:href="#2" y="2.171"/><use xlink:href="#3" y="4.342"/><use xlink:href="#4" y="6.513"/><use xlink:href="#5" y="8.684"/><use xlink:href="#6" y="10.855"/><use xlink:href="#7" y="13.026"/><use xlink:href="#8" y="17.368"/></svg><svg x="368"><use xlink:href="#a"/><use xlink:href="#b" x="-.004" y="30.369"/><use xlink:href="#1"/><use xlink:href="#2" y="2.171"/><use xlink:href="#3" y="4.342"/><use xlink:href="#4" y="6.513"/><use xlink:href="#5" y="8.684"/><use xlink:href="#6" y="10.855"/><use xlink:href="#7" y="13.026"/><use xlink:href="#8" y="17.368"/><use xlink:href="#9" y="19.539"/><use xlink:href="#10" y="21.71"/><use xlink:href="#11" y="23.881"/><use xlink:href="#12" y="26.052"/><use xlink:href="#13" y="28.223"/></svg><svg x="460"><use xlink:href="#a"/><use xlink:href="#b" x="-.004" y="34.711"/><use xlink:href="#1"/><use xlink:href="#2" y="2.171"/><use xlink:href="#3" y="4.342"/><use xlink:href="#4" y="6.513"/><use xlink:href="#5" y="8.684"/><use xlink:href="#6" y="10.855"/><use xlink:href="#7" y="13.026"/><use xlink:href="#8" y="17.368"/><use xlink:href="#9" y="19.539"/><use xlink:href="#10" y="21.71"/><use xlink:href="#11" y="23.881"/><use xlink:href="#12" y="26.052"/><use xlink:href="#13" y="28.223"/><use xlink:href="#14" y="32.565"/></svg><svg x="552"><use xlink:href="#a"/><use xlink:href="#b" x="-.004" y="39.053"/><use xlink:href="#1"/><use xlink:href="#2" y="2.171"/><use xlink:href="#3" y="4.342"/><use xlink:href="#4" y="6.513"/><use xlink:href="#5" y="8.684"/><use xlink:href="#6" y="10.855"/><use xlink:href="#7" y="13.026"/><use xlink:href="#8" y="17.368"/><use xlink:href="#9" y="19.539"/><use xlink:href="#10" y="21.71"/><use xlink:href="#11" y="23.881"/><use xlink:href="#12" y="26.052"/><use xlink:href="#13" y="28.223"/><use xlink:href="#14" y="32.565"/><use xlink:href="#15" y="36.907"/></svg><svg x="644"><use xlink:href="#a"/><use xlink:href="#b" x="-.004" y="56.421"/><use xlink:href="#15"/><text y="3.841" class="f">#</text><text x="2.004" y="3.841" class="f">Compliance</text><text x="13.026" y="3.841" class="f">gap</text><text x="17.034" y="3.841" class="f">scan:</text><text x="23.046" y="3.841" class="f">wm-ops-agent</text><text y="8.183" class="f">Jurisdiction:</text><text x="14.028" y="8.183" class="f">DE</text><text y="10.354" class="f">Generated:</text><text x="11.022" y="10.354" class="f">2026-06-26T00:19:46.677Z</text><text y="14.696" class="f">&gt;</text><text x="2.004" y="14.696" class="f">This</text><text x="7.014" y="14.696" class="f">report</text><text x="14.028" y="14.696" class="f">is</text><text x="17.034" y="14.696" class="f">informational</text><text x="31.062" y="14.696" class="f">and</text><text x="35.07" y="14.696" class="f">is</text><text x="38.076" y="14.696" class="f">not</text><text x="42.084" y="14.696" class="f">legal</text><text x="48.096" y="14.696" class="f">advice.</text><text x="56.112" y="14.696" class="f">Every</text><text x="62.124" y="14.696" class="f">obligation</text><text x="73.146" y="14.696" class="f">it</text><text x="76.152" y="14.696" class="f">lists</text><text x="82.164" y="14.696" class="f">traces</text><text x="89.178" y="14.696" class="f">to</text><text y="16.867" class="f">a</text><text x="2.004" y="16.867" class="f">reference</text><text x="12.024" y="16.867" class="f">recorded</text><text x="21.042" y="16.867" class="f">in</text><text x="24.048" y="16.867" class="f">the</text><text x="28.056" y="16.867" class="f">rules</text><text x="34.068" y="16.867" class="f">data</text><text x="39.078" y="16.867" class="f">and</text><text x="43.086" y="16.867" class="f">validated</text><text x="53.106" y="16.867" class="f">by</text><text x="56.112" y="16.867" class="f">a</text><text x="58.116" y="16.867" class="f">maintainer.</text><text x="70.14" y="16.867" class="f">Confirm</text><text x="78.156" y="16.867" class="f">your</text><text x="83.166" y="16.867" class="f">obligatio</text><text y="19.038" class="f">ns</text><text x="3.006" y="19.038" class="f">with</text><text x="8.016" y="19.038" class="f">qualified</text><text x="18.036" y="19.038" class="f">counsel.</text><text y="23.38" class="f">##</text><text x="3.006" y="23.38" class="f">Summary</text><text y="27.722" class="f">11</text><text x="3.006" y="27.722" class="f">gap(s)</text><text x="10.02" y="27.722" class="f">found</text><text x="16.032" y="27.722" class="f">(high:</text><text x="23.046" y="27.722" class="f">6,</text><text x="26.052" y="27.722" class="f">medium:</text><text x="34.068" y="27.722" class="f">5).</text><text y="32.064" class="f">##</text><text x="3.006" y="32.064" class="f">National</text><text x="12.024" y="32.064" class="f">law</text><text x="16.032" y="32.064" class="f">(DE)</text><text y="36.406" class="f">###</text><text x="4.008" y="36.406" class="f">[high]</text><text x="11.022" y="36.406" class="f">Agent</text><text x="17.034" y="36.406" class="f">acts</text><text x="22.044" y="36.406" class="f">on</text><text x="25.05" y="36.406" class="f">an</text><text x="28.056" y="36.406" class="f">in-scope</text><text x="37.074" y="36.406" class="f">system</text><text x="44.088" y="36.406" class="f">with</text><text x="49.098" y="36.406" class="f">no</text><text x="52.104" y="36.406" class="f">risk</text><text x="57.114" y="36.406" class="f">analysis</text><text x="66.132" y="36.406" class="f">and</text><text x="70.14" y="36.406" class="f">information</text><text x="82.164" y="36.406" class="f">system</text><text x="89.178" y="36.406" class="f">sec</text><text y="38.577" class="f">urity</text><text x="6.012" y="38.577" class="f">policies</text><text x="15.03" y="38.577" class="f">declared</text><text y="42.919" class="f">-</text><text x="2.004" y="42.919" class="f">Category:</text><text x="12.024" y="42.919" class="f">nis2-risk-management</text><text y="45.09" class="f">-</text><text x="2.004" y="45.09" class="f">Rule:</text><text x="8.016" y="45.09" class="f">nis2.risk-management.in-scope-no-a-riskanalysis</text><text y="47.261" class="f">-</text><text x="2.004" y="47.261" class="f">Triggered</text><text x="12.024" y="47.261" class="f">by:</text><text x="16.032" y="47.261" class="f">deployment:wm-ops-agent</text><text y="49.432" class="f">-</text><text x="2.004" y="49.432" class="f">Reference:</text><text x="13.026" y="49.432" class="f">NIS2</text><text x="18.036" y="49.432" class="f">§</text><text x="20.04" y="49.432" class="f">30</text><text x="23.046" y="49.432" class="f">Abs.</text><text x="28.056" y="49.432" class="f">2</text><text x="30.06" y="49.432" class="f">Nr.</text><text x="34.068" y="49.432" class="f">1</text><text x="36.072" y="49.432" class="f">BSIG,</text><text x="42.084" y="49.432" class="f">DE</text><text x="45.09" y="49.432" class="f">BSIG</text><text x="50.1" y="49.432" class="f">(NIS2UmsuCG</text><text x="62.124" y="49.432" class="f">2025)</text><text y="51.603" class="f">-</text><text x="2.004" y="51.603" class="f">Guidance:</text><text x="12.024" y="51.603" class="f">Declare</text><text x="20.04" y="51.603" class="f">policies</text><text x="29.058" y="51.603" class="f">for</text><text x="33.066" y="51.603" class="f">risk</text><text x="38.076" y="51.603" class="f">analysis</text><text x="47.094" y="51.603" class="f">and</text><text x="51.102" y="51.603" class="f">information</text><text x="63.126" y="51.603" class="f">system</text><text x="70.14" y="51.603" class="f">security.</text><text y="55.945" class="f">###</text><text x="4.008" y="55.945" class="f">[high]</text><text x="11.022" y="55.945" class="f">Agent</text><text x="17.034" y="55.945" class="f">acts</text><text x="22.044" y="55.945" class="f">on</text><text x="25.05" y="55.945" class="f">an</text><text x="28.056" y="55.945" class="f">in-scope</text><text x="37.074" y="55.945" class="f">system</text><text x="44.088" y="55.945" class="f">with</text><text x="49.098" y="55.945" class="f">no</text><text x="52.104" y="55.945" class="f">incident</text><text x="61.122" y="55.945" class="f">handling</text><text x="70.14" y="55.945" class="f">declared</text></svg></svg></g></g></svg></svg>